<svg width="24" height="24" viewBox="0 0 24 24" fill="none" xmlns="http://www.w3.org/2000/svg">
<g clip-path="url(#clip0_3_1150)">
<path d="M22 5.5H4C3.60218 5.5 3.22064 5.65804 2.93934 5.93934C2.65804 6.22064 2.5 6.60218 2.5 7V19C2.5 19.3978 2.65804 19.7794 2.93934 20.0607C3.22064 20.342 3.60218 20.5 4 20.5H22C22.3978 20.5 22.7794 20.342 23.0607 20.0607C23.342 19.7794 23.5 19.3978 23.5 19V7C23.5 6.60218 23.342 6.22064 23.0607 5.93934C22.7794 5.65804 22.3978 5.5 22 5.5V5.5ZM20.35 7L13 12.085L5.65 7H20.35ZM4 19V7.6825L12.5725 13.615C12.698 13.7021 12.8472 13.7488 13 13.7488C13.1528 13.7488 13.302 13.7021 13.4275 13.615L22 7.6825V19H4Z" fill="#FFC979"/>
</g>
<defs>
<clipPath id="clip0_3_1150">
<rect width="24" height="24" fill="white"/>
</clipPath>
</defs>
</svg>
