<svg width="774" height="529" viewBox="0 0 774 529" fill="none" xmlns="http://www.w3.org/2000/svg">
<g clip-path="url(#clip0_5_716)">
<path opacity="0.1" d="M773.16 221.966C768.45 241.03 744.273 250.586 730.727 264.808C705.201 291.613 715.142 330.758 731.337 362.107C736.758 372.605 742.911 383.718 740.614 394.974C737.815 408.742 722.941 418.806 707.322 424.143C678.862 433.861 644.778 431.545 618.615 418.102C596.009 406.487 579.814 387.626 556.822 376.506C518.34 357.956 469.362 364.992 427.573 377.745C398.015 386.786 365.692 398.55 336.317 389.109C315.65 382.458 301.359 366.272 293.573 349.152C289.819 340.869 287.088 331.902 279.912 325.34C275.643 321.432 270.073 318.662 264.374 316.333C212.279 295 146.468 306.425 95.897 282.762C61.7313 266.786 39.8509 236.648 30.1677 205.218C20.4845 173.787 21.6094 140.832 24.0691 108.46C25.8174 85.434 28.9548 60.9043 46.7491 43.1471C65.5735 24.3672 97.8757 17.4119 127.081 20.9539C156.287 24.4958 182.748 37.2483 206.038 52.2289C235.175 70.9614 262.131 94.2788 297.862 101.864C322.196 107.031 347.789 104.2 372.889 103.218C414.847 101.586 456.819 105.25 498.54 109.205C518.869 111.149 539.265 113.187 559.417 116.14C563.935 116.799 568.452 117.51 572.97 118.273C575.233 118.659 577.496 119.059 579.746 119.472C581.508 119.79 583.263 120.149 585.018 120.468C587.787 121.005 590.547 121.569 593.299 122.161C601.2 123.854 609.026 125.771 616.771 127.951C643.7 135.543 665.289 149.332 690.72 158.962C707.295 165.24 725.367 166.974 741.061 174.965C760.373 184.779 778.113 201.92 773.16 221.966Z" fill="#FFC979"/>
<path d="M636.931 323.552C675.189 323.552 706.204 292.555 706.204 254.318C706.204 216.081 675.189 185.083 636.931 185.083C598.672 185.083 567.657 216.081 567.657 254.318C567.657 292.555 598.672 323.552 636.931 323.552Z" fill="#FFC979"/>
<path d="M563.26 304.637C601.518 304.637 632.533 273.639 632.533 235.402C632.533 197.165 601.518 166.168 563.26 166.168C525.001 166.168 493.986 197.165 493.986 235.402C493.986 273.639 525.001 304.637 563.26 304.637Z" fill="#FFC979"/>
<path d="M482.162 305.314C520.42 305.314 551.435 274.317 551.435 236.08C551.435 197.843 520.42 166.845 482.162 166.845C443.903 166.845 412.889 197.843 412.889 236.08C412.889 274.317 443.903 305.314 482.162 305.314Z" fill="#FFC979"/>
<path d="M455.802 323.552C494.061 323.552 525.076 292.555 525.076 254.318C525.076 216.081 494.061 185.083 455.802 185.083C417.544 185.083 386.529 216.081 386.529 254.318C386.529 292.555 417.544 323.552 455.802 323.552Z" fill="#FFC979"/>
<path d="M411.194 329.634C449.453 329.634 480.468 298.636 480.468 260.399C480.468 222.162 449.453 191.165 411.194 191.165C372.936 191.165 341.921 222.162 341.921 260.399C341.921 298.636 372.936 329.634 411.194 329.634Z" fill="#FFC979"/>
<path d="M392.946 274.919C431.205 274.919 462.219 243.922 462.219 205.685C462.219 167.448 431.205 136.451 392.946 136.451C354.688 136.451 323.673 167.448 323.673 205.685C323.673 243.922 354.688 274.919 392.946 274.919Z" fill="#FFC979"/>
<path d="M413.221 211.421C451.479 211.421 482.494 180.424 482.494 142.187C482.494 103.95 451.479 72.9525 413.221 72.9525C374.962 72.9525 343.947 103.95 343.947 142.187C343.947 180.424 374.962 211.421 413.221 211.421Z" fill="#FFC979"/>
<path d="M451.743 211.421C490.002 211.421 521.017 180.424 521.017 142.187C521.017 103.95 490.002 72.9525 451.743 72.9525C413.485 72.9525 382.47 103.95 382.47 142.187C382.47 180.424 413.485 211.421 451.743 211.421Z" fill="#FFC979"/>
<path d="M474.051 183.052C512.309 183.052 543.324 152.054 543.324 113.817C543.324 75.5801 512.309 44.5828 474.051 44.5828C435.792 44.5828 404.777 75.5801 404.777 113.817C404.777 152.054 435.792 183.052 474.051 183.052Z" fill="#FFC979"/>
<path d="M530.822 214.123C569.08 214.123 600.095 183.126 600.095 144.889C600.095 106.652 569.08 75.6547 530.822 75.6547C492.563 75.6547 461.549 106.652 461.549 144.889C461.549 183.126 492.563 214.123 530.822 214.123Z" fill="#FFC979"/>
<path d="M663.29 274.919C701.549 274.919 732.563 243.922 732.563 205.685C732.563 167.448 701.549 136.451 663.29 136.451C625.032 136.451 594.017 167.448 594.017 205.685C594.017 243.922 625.032 274.919 663.29 274.919Z" fill="#FFC979"/>
<path d="M623.412 240.468C661.671 240.468 692.685 209.471 692.685 171.234C692.685 132.997 661.671 101.999 623.412 101.999C585.153 101.999 554.139 132.997 554.139 171.234C554.139 209.471 585.153 240.468 623.412 240.468Z" fill="#FFC979"/>
<path d="M597.73 206.017C635.989 206.017 667.004 175.02 667.004 136.782C667.004 98.5453 635.989 67.548 597.73 67.548C559.472 67.548 528.457 98.5453 528.457 136.782C528.457 175.02 559.472 206.017 597.73 206.017Z" fill="#FFC979"/>
<path d="M549.07 154.005C587.329 154.005 618.344 123.007 618.344 84.7703C618.344 46.5332 587.329 15.5359 549.07 15.5359C510.812 15.5359 479.797 46.5332 479.797 84.7703C479.797 123.007 510.812 154.005 549.07 154.005Z" fill="#FFC979"/>
<path d="M639.634 211.421C677.893 211.421 708.908 180.424 708.908 142.187C708.908 103.95 677.893 72.9525 639.634 72.9525C601.376 72.9525 570.361 103.95 570.361 142.187C570.361 180.424 601.376 211.421 639.634 211.421Z" fill="#FFC979"/>
<g opacity="0.1">
<path d="M636.931 323.552C675.189 323.552 706.204 292.555 706.204 254.318C706.204 216.081 675.189 185.083 636.931 185.083C598.672 185.083 567.657 216.081 567.657 254.318C567.657 292.555 598.672 323.552 636.931 323.552Z" fill="black"/>
<path d="M563.26 304.637C601.518 304.637 632.533 273.639 632.533 235.402C632.533 197.165 601.518 166.168 563.26 166.168C525.001 166.168 493.986 197.165 493.986 235.402C493.986 273.639 525.001 304.637 563.26 304.637Z" fill="black"/>
<path d="M482.162 305.314C520.42 305.314 551.435 274.317 551.435 236.08C551.435 197.842 520.42 166.845 482.162 166.845C443.903 166.845 412.889 197.842 412.889 236.08C412.889 274.317 443.903 305.314 482.162 305.314Z" fill="black"/>
<path d="M455.802 323.552C494.061 323.552 525.076 292.555 525.076 254.318C525.076 216.081 494.061 185.083 455.802 185.083C417.544 185.083 386.529 216.081 386.529 254.318C386.529 292.555 417.544 323.552 455.802 323.552Z" fill="black"/>
<path d="M411.194 329.634C449.453 329.634 480.468 298.636 480.468 260.399C480.468 222.162 449.453 191.165 411.194 191.165C372.936 191.165 341.921 222.162 341.921 260.399C341.921 298.636 372.936 329.634 411.194 329.634Z" fill="black"/>
<path d="M392.946 274.919C431.205 274.919 462.219 243.922 462.219 205.685C462.219 167.448 431.205 136.451 392.946 136.451C354.688 136.451 323.673 167.448 323.673 205.685C323.673 243.922 354.688 274.919 392.946 274.919Z" fill="black"/>
<path d="M413.221 211.421C451.479 211.421 482.494 180.424 482.494 142.187C482.494 103.95 451.479 72.9524 413.221 72.9524C374.962 72.9524 343.947 103.95 343.947 142.187C343.947 180.424 374.962 211.421 413.221 211.421Z" fill="black"/>
<path d="M451.743 211.421C490.002 211.421 521.017 180.424 521.017 142.187C521.017 103.95 490.002 72.9524 451.743 72.9524C413.485 72.9524 382.47 103.95 382.47 142.187C382.47 180.424 413.485 211.421 451.743 211.421Z" fill="black"/>
<path d="M474.051 183.052C512.309 183.052 543.324 152.054 543.324 113.817C543.324 75.5801 512.309 44.5828 474.051 44.5828C435.792 44.5828 404.777 75.5801 404.777 113.817C404.777 152.054 435.792 183.052 474.051 183.052Z" fill="black"/>
<path d="M530.822 214.123C569.08 214.123 600.095 183.126 600.095 144.889C600.095 106.652 569.08 75.6546 530.822 75.6546C492.563 75.6546 461.549 106.652 461.549 144.889C461.549 183.126 492.563 214.123 530.822 214.123Z" fill="black"/>
<path d="M663.29 274.919C701.549 274.919 732.563 243.922 732.563 205.685C732.563 167.448 701.549 136.451 663.29 136.451C625.032 136.451 594.017 167.448 594.017 205.685C594.017 243.922 625.032 274.919 663.29 274.919Z" fill="black"/>
<path d="M623.412 240.468C661.671 240.468 692.685 209.471 692.685 171.234C692.685 132.997 661.671 101.999 623.412 101.999C585.154 101.999 554.139 132.997 554.139 171.234C554.139 209.471 585.154 240.468 623.412 240.468Z" fill="black"/>
<path d="M597.73 206.017C635.989 206.017 667.003 175.02 667.003 136.782C667.003 98.5453 635.989 67.548 597.73 67.548C559.472 67.548 528.457 98.5453 528.457 136.782C528.457 175.02 559.472 206.017 597.73 206.017Z" fill="black"/>
<path d="M549.07 154.005C587.329 154.005 618.344 123.007 618.344 84.7703C618.344 46.5332 587.329 15.5359 549.07 15.5359C510.812 15.5359 479.797 46.5332 479.797 84.7703C479.797 123.007 510.812 154.005 549.07 154.005Z" fill="black"/>
<path d="M639.634 211.421C677.893 211.421 708.908 180.424 708.908 142.187C708.908 103.95 677.893 72.9524 639.634 72.9524C601.376 72.9524 570.361 103.95 570.361 142.187C570.361 180.424 601.376 211.421 639.634 211.421Z" fill="black"/>
</g>
<path d="M602.718 375.645C602.718 375.645 645.069 340.07 624.117 289.412L603.165 281.57L580.431 351.522L602.718 375.645Z" fill="#67647E"/>
<path opacity="0.1" d="M604.974 279.159L609.988 281.035L587.668 349.714L607.142 370.79C605.53 372.395 604.527 373.234 604.527 373.234L582.233 349.111L604.974 279.159Z" fill="black"/>
<path opacity="0.1" d="M392.682 528.993C600.947 528.993 769.778 500.746 769.778 465.901C769.778 431.057 600.947 402.81 392.682 402.81C184.417 402.81 15.5853 431.057 15.5853 465.901C15.5853 500.746 184.417 528.993 392.682 528.993Z" fill="#FFC979"/>
<path d="M682.934 368.182C682.934 368.182 669.158 381.951 676.937 402.383C684.717 422.815 663.609 456.786 663.609 456.786L664.286 456.677C692.577 451.686 706.638 419.348 690.903 395.319C685.021 386.4 680.217 375.916 682.934 368.182Z" fill="#FFC979"/>
<path d="M682.934 368.182C682.934 368.182 675.155 385.059 682.934 398.827C690.713 412.596 684.29 451.232 663.602 456.786" stroke="#535461" stroke-miterlimit="10"/>
<path d="M707.471 423.872C707.471 423.872 691.75 421.373 690.321 435.453C688.891 449.532 660.085 451.483 660.085 451.483L660.627 451.842C684.405 467.418 707.132 461.777 703.704 441.067C702.436 433.367 702.538 425.633 707.471 423.872Z" fill="#FFC979"/>
<path opacity="0.2" d="M707.471 423.872C707.471 423.872 691.75 421.373 690.321 435.453C688.891 449.532 660.085 451.483 660.085 451.483L660.627 451.842C684.405 467.418 707.132 461.777 703.704 441.067C702.436 433.367 702.538 425.633 707.471 423.872Z" fill="#F5F5F5"/>
<path d="M707.471 423.872C707.471 423.872 695.274 426.581 696.27 437.64C697.266 448.699 678.15 462.021 660.092 451.483" stroke="#535461" stroke-miterlimit="10"/>
<path d="M411.452 301.548L416.954 323.559C416.954 323.559 455.829 328.625 481.748 325.442C486.33 324.792 490.729 323.206 494.671 320.782C496.859 319.489 500.315 318.927 505.038 322.462C513.129 328.557 552.838 377.318 546.407 427.908C545.908 431.72 544.166 435.261 541.45 437.984C538.734 440.707 535.197 442.459 531.384 442.97C523.466 444.049 515.896 446.911 509.246 451.341L489.595 464.418L691.086 460.016L670.168 434.708C670.168 434.708 655.857 422.605 644.845 421.501C641.633 421.183 638.984 418.237 636.843 414.235C624.3 390.768 609.297 368.704 593.034 347.635C581.189 332.288 571.249 316.116 572.177 305.957C574.379 281.746 572.177 242.134 572.177 242.134L530.341 236.635C530.341 236.635 535.843 289.46 485.198 302.659C434.552 315.859 411.452 301.548 411.452 301.548Z" fill="#67647E"/>
<g opacity="0.1">
<path d="M445.584 311.457C445.584 311.457 468.704 325.76 519.357 312.554C570.009 299.347 564.5 246.529 564.5 246.529L572.462 247.566C572.313 244.179 572.197 242.148 572.197 242.148L530.361 236.648C530.361 236.648 535.863 289.473 485.218 302.673C434.572 315.872 411.445 301.576 411.445 301.576L416.948 323.586C416.948 323.586 431.801 325.523 449.27 326.247L445.584 311.457Z" fill="black"/>
<path d="M543.378 461.242C550.028 456.812 557.598 453.95 565.516 452.871C569.32 452.366 572.852 450.624 575.566 447.912C578.28 445.201 580.025 441.672 580.532 437.87C586.997 387.28 547.268 338.431 539.197 332.363C530.388 325.76 525.984 333.46 525.984 333.46C522.866 334.278 519.697 334.882 516.497 335.268C530.768 354.231 551.184 390.606 546.407 427.962C545.9 431.764 544.155 435.293 541.441 438.004C538.727 440.716 535.195 442.458 531.391 442.963C523.473 444.042 515.903 446.904 509.253 451.334L489.602 464.411L540.261 463.308L543.378 461.242Z" fill="black"/>
</g>
<path d="M445.17 408.316C445.17 408.316 440.962 394.039 445.956 383.529C448.08 379.134 448.719 374.17 447.779 369.381C447.306 367.109 446.626 364.885 445.746 362.737" stroke="#535461" stroke-width="2" stroke-miterlimit="10"/>
<path d="M448.891 356.093C448.891 357.841 445.719 362.92 445.719 362.92C445.719 362.92 442.568 357.841 442.568 356.093C442.568 355.253 442.902 354.447 443.497 353.852C444.092 353.258 444.899 352.924 445.74 352.924C446.581 352.924 447.387 353.258 447.982 353.852C448.577 354.447 448.911 355.253 448.911 356.093H448.891Z" fill="#FFC979"/>
<path d="M454.135 365.785C453.187 367.254 447.766 369.794 447.766 369.794C447.766 369.794 447.867 363.814 448.816 362.344C449.036 361.982 449.327 361.667 449.671 361.418C450.015 361.17 450.406 360.993 450.82 360.899C451.233 360.804 451.662 360.793 452.08 360.867C452.498 360.941 452.897 361.098 453.253 361.329C453.609 361.56 453.915 361.859 454.153 362.211C454.391 362.562 454.556 362.957 454.639 363.374C454.721 363.79 454.719 364.218 454.632 364.634C454.546 365.049 454.377 365.443 454.135 365.792V365.785Z" fill="#FFC979"/>
<path d="M453.905 382.337C452.34 383.122 446.383 382.58 446.383 382.58C446.383 382.58 449.487 377.467 451.052 376.682C451.424 376.494 451.829 376.382 452.245 376.352C452.66 376.321 453.077 376.372 453.473 376.503C453.868 376.633 454.234 376.84 454.55 377.112C454.865 377.384 455.124 377.715 455.311 378.087C455.498 378.459 455.611 378.864 455.641 379.279C455.672 379.694 455.621 380.111 455.49 380.506C455.36 380.901 455.152 381.267 454.88 381.582C454.608 381.898 454.277 382.156 453.905 382.343V382.337Z" fill="#FFC979"/>
<path d="M450.91 394.845C449.5 395.888 443.537 396.356 443.537 396.356C443.537 396.356 445.733 390.789 447.142 389.752C447.82 389.293 448.649 389.114 449.456 389.251C450.263 389.389 450.985 389.833 451.472 390.491C451.959 391.149 452.172 391.97 452.067 392.781C451.963 393.593 451.548 394.332 450.91 394.845Z" fill="#FFC979"/>
<path d="M441.105 370.146C442.358 371.365 448.213 372.632 448.213 372.632C448.213 372.632 446.783 366.821 445.502 365.602C444.894 365.045 444.093 364.747 443.268 364.771C442.443 364.795 441.661 365.139 441.086 365.73C440.511 366.321 440.189 367.113 440.189 367.938C440.189 368.762 440.51 369.555 441.084 370.146H441.105Z" fill="#FFC979"/>
<path d="M437.784 384.788C439.35 385.574 445.306 385.032 445.306 385.032C445.306 385.032 442.202 379.919 440.637 379.133C439.886 378.755 439.015 378.691 438.217 378.954C437.418 379.218 436.757 379.788 436.378 380.538C436 381.289 435.936 382.16 436.199 382.958C436.463 383.756 437.033 384.417 437.784 384.795V384.788Z" fill="#FFC979"/>
<path d="M436.51 399.478C437.92 400.521 443.883 400.988 443.883 400.988C443.883 400.988 441.687 395.421 440.278 394.385C439.6 393.926 438.771 393.746 437.964 393.884C437.157 394.021 436.435 394.466 435.948 395.124C435.462 395.782 435.248 396.602 435.353 397.414C435.458 398.225 435.873 398.965 436.51 399.478Z" fill="#FFC979"/>
<path d="M436.016 406.921C436.016 406.921 443.707 405.383 445.753 403.331C447.8 401.279 457.029 397.697 458.059 400.256C459.089 402.816 471.903 411.526 463.182 413.063C454.461 414.6 442.677 415.095 440.142 414.086C437.608 413.077 436.016 406.921 436.016 406.921Z" fill="#A8A8A8"/>
<path opacity="0.2" d="M463.188 412.135C454.474 413.673 442.684 414.167 440.149 413.158C438.198 412.379 436.842 408.627 436.307 406.887L436.05 406.941C436.05 406.941 437.588 413.09 440.149 414.113C442.711 415.135 454.501 414.627 463.188 413.09C465.702 412.643 466.421 411.607 466.15 410.286C465.933 411.126 465.059 411.79 463.188 412.135Z" fill="black"/>
<path d="M563.524 455.113C563.524 455.113 586.854 450.447 593.082 444.23C599.309 438.013 627.302 427.129 630.412 434.904C633.522 442.679 672.424 469.105 645.997 473.771C619.57 478.437 583.778 479.988 575.999 476.879C568.22 473.771 563.524 455.113 563.524 455.113Z" fill="#A8A8A8"/>
<path opacity="0.2" d="M645.97 470.879C619.543 475.545 583.751 477.096 575.972 473.988C570.049 471.617 565.929 460.24 564.303 454.95L563.524 455.113C563.524 455.113 568.193 473.771 575.965 476.88C583.737 479.988 619.523 478.437 645.963 473.771C653.6 472.417 655.782 469.261 654.955 465.265C654.312 467.872 651.649 469.884 645.97 470.879Z" fill="black"/>
<path d="M721.437 322.604C721.35 325.387 720.479 328.089 718.923 330.399C717.355 328.097 716.469 325.4 716.368 322.617C716.368 318.317 717.48 314.829 718.882 314.822C720.285 314.816 721.423 318.303 721.437 322.604Z" fill="#FFC979"/>
<path d="M530.151 318.825C530.057 321.608 529.179 324.308 527.617 326.613C526.055 324.308 525.176 321.608 525.082 318.825C525.082 314.524 526.214 311.037 527.617 311.037C529.019 311.037 530.151 314.524 530.151 318.825Z" fill="#FFC979"/>
<path d="M738.628 395.57C740.19 397.876 741.069 400.575 741.162 403.358C738.542 402.412 736.242 400.745 734.529 398.55C731.994 395.069 730.863 391.581 731.994 390.762C733.126 389.942 736.101 392.096 738.628 395.57Z" fill="#FFC979"/>
<path d="M657.679 354.793C657.586 357.576 656.707 360.276 655.145 362.581C653.583 360.276 652.705 357.576 652.611 354.793C652.611 350.493 653.743 347.005 655.145 347.005C656.548 347.005 657.679 350.506 657.679 354.793Z" fill="#FFC979"/>
<path d="M610.327 328.923C610.233 331.705 609.355 334.405 607.793 336.711C606.231 334.405 605.352 331.705 605.259 328.923C605.259 324.622 606.39 321.134 607.793 321.134C609.196 321.134 610.327 324.622 610.327 328.923Z" fill="#FFC979"/>
<path d="M580.952 344.696C582.255 347.157 582.835 349.937 582.626 352.714C580.114 351.493 578 349.587 576.527 347.215C574.386 343.483 573.641 339.894 574.854 339.196C576.067 338.499 578.818 340.964 580.952 344.696Z" fill="#FFC979"/>
<path d="M559.004 416.239C556.908 418.075 554.336 419.282 551.584 419.72C552.199 417.006 553.568 414.519 555.535 412.548C558.672 409.609 561.999 408.051 562.955 409.067C563.91 410.083 562.142 413.3 559.004 416.239Z" fill="#FFC979"/>
<path opacity="0.1" d="M559.004 416.239C556.908 418.075 554.336 419.282 551.584 419.72C552.199 417.006 553.568 414.519 555.535 412.548C558.672 409.609 561.999 408.051 562.955 409.067C563.91 410.083 562.142 413.3 559.004 416.239Z" fill="black"/>
<path d="M605.089 411.824C602.994 413.66 600.421 414.866 597.669 415.305C598.284 412.59 599.653 410.104 601.62 408.133C604.757 405.194 608.084 403.636 609.04 404.652C609.995 405.668 608.227 408.878 605.089 411.824Z" fill="#FFC979"/>
<path opacity="0.1" d="M605.089 411.824C602.994 413.66 600.421 414.866 597.669 415.305C598.284 412.59 599.653 410.104 601.62 408.133C604.757 405.194 608.084 403.636 609.04 404.652C609.995 405.668 608.227 408.878 605.089 411.824Z" fill="black"/>
<path d="M613.925 458.513C611.83 460.349 609.258 461.555 606.505 461.994C607.119 459.271 608.491 456.777 610.463 454.801C613.6 451.862 616.927 450.305 617.883 451.32C618.838 452.336 617.07 455.567 613.925 458.513Z" fill="#FFC979"/>
<path opacity="0.1" d="M613.925 458.513C611.83 460.349 609.258 461.555 606.505 461.994C607.119 459.271 608.491 456.777 610.463 454.801C613.6 451.862 616.927 450.305 617.883 451.32C618.838 452.336 617.07 455.567 613.925 458.513Z" fill="black"/>
<path d="M61.3045 383.874C71.6924 399.2 68.3788 454.07 68.3788 454.07C68.3788 454.07 16.1681 436.794 5.78011 421.474C0.792083 414.115 -1.06636 405.076 0.613621 396.347C2.2936 387.618 7.37439 379.913 14.7383 374.928C22.1022 369.942 31.1459 368.085 39.88 369.764C48.6142 371.443 56.3232 376.521 61.3112 383.881L61.3045 383.874Z" fill="#FFC979"/>
<path opacity="0.1" d="M61.3045 383.874C71.6924 399.2 68.3788 454.07 68.3788 454.07C68.3788 454.07 16.1681 436.794 5.78011 421.474C0.792083 414.115 -1.06636 405.076 0.613621 396.347C2.2936 387.618 7.37439 379.913 14.7383 374.928C22.1022 369.942 31.1459 368.085 39.88 369.764C48.6142 371.443 56.3232 376.521 61.3112 383.881L61.3045 383.874Z" fill="black"/>
<path d="M14.9348 374.961C14.9348 374.961 54.0607 405.153 68.5821 454.124" stroke="#535461" stroke-miterlimit="10"/>
<path d="M78.4347 412.521C78.4347 412.521 50.6522 407.781 69.6257 453.772C69.6257 453.772 88.9311 446.417 90.4354 428.118C90.7339 424.558 89.716 421.012 87.5743 418.151C85.4327 415.291 82.316 413.314 78.8142 412.596L78.4347 412.521Z" fill="#FFC979"/>
<path d="M78.8413 412.474C78.8413 412.474 84.1335 437.911 69.6527 453.786" stroke="#535461" stroke-miterlimit="10"/>
<path d="M683.47 455.201C683.47 455.201 695.064 452.898 698.154 449.831C701.244 446.763 715.162 441.392 716.707 445.225C718.252 449.058 737.578 462.102 724.439 464.398C711.3 466.694 693.519 467.466 689.656 465.935C685.794 464.405 683.47 455.201 683.47 455.201Z" fill="#A8A8A8"/>
<path opacity="0.2" d="M724.459 462.982C711.32 465.285 693.539 466.05 689.677 464.52C686.736 463.348 684.689 457.747 683.876 455.126L683.49 455.208C683.49 455.208 685.808 464.411 689.677 465.949C693.546 467.486 711.32 466.714 724.459 464.411C728.254 463.734 729.338 462.19 728.931 460.213C728.586 461.493 727.264 462.488 724.459 462.982Z" fill="black"/>
<path d="M636.931 308.016C675.189 308.016 706.204 277.019 706.204 238.782C706.204 200.545 675.189 169.547 636.931 169.547C598.672 169.547 567.657 200.545 567.657 238.782C567.657 277.019 598.672 308.016 636.931 308.016Z" fill="#FFC979"/>
<path d="M563.26 289.101C601.518 289.101 632.533 258.104 632.533 219.866C632.533 181.629 601.518 150.632 563.26 150.632C525.001 150.632 493.986 181.629 493.986 219.866C493.986 258.104 525.001 289.101 563.26 289.101Z" fill="#FFC979"/>
<path d="M482.162 289.778C520.42 289.778 551.435 258.781 551.435 220.544C551.435 182.307 520.42 151.309 482.162 151.309C443.903 151.309 412.889 182.307 412.889 220.544C412.889 258.781 443.903 289.778 482.162 289.778Z" fill="#FFC979"/>
<path d="M455.802 308.016C494.061 308.016 525.076 277.019 525.076 238.782C525.076 200.545 494.061 169.547 455.802 169.547C417.544 169.547 386.529 200.545 386.529 238.782C386.529 277.019 417.544 308.016 455.802 308.016Z" fill="#FFC979"/>
<path d="M411.194 314.098C449.453 314.098 480.468 283.101 480.468 244.863C480.468 206.626 449.453 175.629 411.194 175.629C372.936 175.629 341.921 206.626 341.921 244.863C341.921 283.101 372.936 314.098 411.194 314.098Z" fill="#FFC979"/>
<path d="M392.946 259.383C431.205 259.383 462.219 228.386 462.219 190.149C462.219 151.912 431.205 120.915 392.946 120.915C354.688 120.915 323.673 151.912 323.673 190.149C323.673 228.386 354.688 259.383 392.946 259.383Z" fill="#FFC979"/>
<path d="M413.221 195.885C451.479 195.885 482.494 164.888 482.494 126.651C482.494 88.4138 451.479 57.4165 413.221 57.4165C374.962 57.4165 343.947 88.4138 343.947 126.651C343.947 164.888 374.962 195.885 413.221 195.885Z" fill="#FFC979"/>
<path d="M451.743 195.885C490.002 195.885 521.017 164.888 521.017 126.651C521.017 88.4138 490.002 57.4165 451.743 57.4165C413.485 57.4165 382.47 88.4138 382.47 126.651C382.47 164.888 413.485 195.885 451.743 195.885Z" fill="#FFC979"/>
<path d="M474.051 167.516C512.309 167.516 543.324 136.518 543.324 98.2813C543.324 60.0442 512.309 29.0469 474.051 29.0469C435.792 29.0469 404.777 60.0442 404.777 98.2813C404.777 136.518 435.792 167.516 474.051 167.516Z" fill="#FFC979"/>
<path d="M530.822 198.587C569.08 198.587 600.095 167.59 600.095 129.353C600.095 91.116 569.08 60.1187 530.822 60.1187C492.563 60.1187 461.549 91.116 461.549 129.353C461.549 167.59 492.563 198.587 530.822 198.587Z" fill="#FFC979"/>
<path d="M663.29 259.383C701.549 259.383 732.563 228.386 732.563 190.149C732.563 151.912 701.549 120.915 663.29 120.915C625.032 120.915 594.017 151.912 594.017 190.149C594.017 228.386 625.032 259.383 663.29 259.383Z" fill="#FFC979"/>
<path d="M623.412 224.932C661.671 224.932 692.685 193.935 692.685 155.698C692.685 117.461 661.671 86.4634 623.412 86.4634C585.153 86.4634 554.139 117.461 554.139 155.698C554.139 193.935 585.153 224.932 623.412 224.932Z" fill="#FFC979"/>
<path d="M597.73 190.481C635.989 190.481 667.004 159.484 667.004 121.247C667.004 83.0094 635.989 52.0121 597.73 52.0121C559.472 52.0121 528.457 83.0094 528.457 121.247C528.457 159.484 559.472 190.481 597.73 190.481Z" fill="#FFC979"/>
<path d="M549.07 138.469C587.329 138.469 618.344 107.471 618.344 69.2344C618.344 30.9973 587.329 0 549.07 0C510.812 0 479.797 30.9973 479.797 69.2344C479.797 107.471 510.812 138.469 549.07 138.469Z" fill="#FFC979"/>
<path d="M639.634 195.885C677.893 195.885 708.908 164.888 708.908 126.651C708.908 88.4138 677.893 57.4165 639.634 57.4165C601.376 57.4165 570.361 88.4138 570.361 126.651C570.361 164.888 601.376 195.885 639.634 195.885Z" fill="#FFC979"/>
<path opacity="0.1" d="M705.899 137.494C705.899 137.494 641.383 106.916 602.345 161.109L705.899 137.494Z" fill="black"/>
<path opacity="0.1" d="M536.439 75.5463C536.439 75.5463 465.072 73.3926 451.059 138.679L536.439 75.5463Z" fill="black"/>
<path opacity="0.1" d="M447.725 217.198C447.725 217.198 383.209 186.614 344.171 240.793L447.725 217.198Z" fill="black"/>
<path d="M165.367 389.786C165.367 389.786 169.087 394.649 163.646 401.977C158.204 409.304 153.719 415.521 155.514 420.1C155.514 420.1 163.72 406.46 170.422 406.27C177.124 406.081 172.712 397.988 165.367 389.786Z" fill="#FFC979"/>
<path opacity="0.1" d="M165.367 389.786C165.691 390.256 165.946 390.769 166.126 391.31C172.644 398.963 176.121 406.108 169.853 406.291C164.018 406.46 157.012 416.889 155.338 419.524C155.392 419.728 155.458 419.93 155.535 420.127C155.535 420.127 163.741 406.487 170.442 406.297C177.144 406.108 172.712 397.988 165.367 389.786Z" fill="black"/>
<path d="M172.285 395.99C172.285 397.703 172.096 399.091 171.858 399.091C171.621 399.091 171.432 397.737 171.432 395.99C171.432 394.242 171.669 395.082 171.906 395.082C172.143 395.082 172.285 394.276 172.285 395.99Z" fill="#FFD037"/>
<path d="M174.657 398.028C173.153 398.848 171.838 399.342 171.73 399.132C171.621 398.922 172.746 398.089 174.25 397.27C175.755 396.45 175.158 397.046 175.274 397.27C175.389 397.493 176.161 397.236 174.657 398.028Z" fill="#FFD037"/>
<path d="M145.702 389.786C145.702 389.786 141.982 394.649 147.423 401.977C152.865 409.304 157.351 415.521 155.555 420.1C155.555 420.1 147.349 406.46 140.647 406.27C133.946 406.081 138.35 397.988 145.702 389.786Z" fill="#FFC979"/>
<path opacity="0.1" d="M145.702 389.786C145.378 390.256 145.123 390.769 144.943 391.31C138.425 398.963 134.948 406.108 141.216 406.291C147.051 406.46 154.057 416.889 155.731 419.524C155.677 419.728 155.611 419.93 155.535 420.127C155.535 420.127 147.329 406.487 140.627 406.297C133.925 406.108 138.35 397.988 145.702 389.786Z" fill="black"/>
<path d="M138.784 395.99C138.784 397.703 138.973 399.091 139.211 399.091C139.448 399.091 139.638 397.737 139.638 395.99C139.638 394.242 139.4 395.082 139.163 395.082C138.926 395.082 138.784 394.276 138.784 395.99Z" fill="#FFD037"/>
<path d="M136.405 398.028C137.91 398.848 139.224 399.342 139.333 399.132C139.441 398.922 138.316 398.089 136.812 397.27C135.308 396.45 135.904 397.046 135.789 397.27C135.673 397.493 134.928 397.236 136.405 398.028Z" fill="#FFD037"/>
<path d="M139.97 419.483C139.97 419.483 150.378 419.165 153.522 416.93C156.666 414.695 169.534 412.034 170.307 415.609C171.079 419.185 185.946 433.414 174.196 433.509C162.446 433.604 146.895 431.68 143.764 429.771C140.634 427.861 139.97 419.483 139.97 419.483Z" fill="#A8A8A8"/>
<path opacity="0.2" d="M174.4 432.27C162.65 432.364 147.098 430.441 143.968 428.531C141.582 427.082 140.634 421.874 140.315 419.47H139.97C139.97 419.47 140.647 427.861 143.757 429.764C146.868 431.667 162.44 433.597 174.189 433.502C177.578 433.502 178.75 432.27 178.689 430.482C178.221 431.572 176.941 432.249 174.4 432.27Z" fill="black"/>
<path d="M81.0165 486.456C82.2584 485.444 83.1635 484.079 83.6118 482.541C83.9506 480.984 83.2865 479.121 81.7957 478.552C80.1288 477.916 78.3466 479.067 76.9982 480.239C75.6497 481.41 74.0979 482.738 72.3294 482.487C73.2384 481.663 73.9184 480.619 74.3032 479.454C74.6879 478.29 74.7643 477.046 74.5249 475.843C74.4484 475.345 74.2376 474.877 73.915 474.489C72.9867 473.5 71.3129 473.927 70.2016 474.706C66.678 477.184 65.6954 481.966 65.6751 486.273C65.3228 484.722 65.6209 483.103 65.6073 481.532C65.5938 479.961 65.1601 478.146 63.8184 477.32C62.9864 476.873 62.0521 476.651 61.1079 476.676C59.5223 476.615 57.7605 476.778 56.6763 477.936C55.321 479.372 55.6802 481.789 56.8525 483.354C58.0248 484.918 59.8001 485.927 61.44 487.025C62.7542 487.805 63.8753 488.873 64.7197 490.147C64.819 490.323 64.9007 490.509 64.9636 490.702H74.8908C77.115 489.569 79.1756 488.141 81.0165 486.456Z" fill="#FFC979"/>
<path d="M697.652 495.937C698.894 494.925 699.799 493.56 700.248 492.023C700.586 490.465 699.922 488.603 698.432 488.034C696.765 487.397 694.983 488.548 693.634 489.72C692.286 490.892 690.734 492.219 688.965 491.968C689.874 491.145 690.554 490.1 690.939 488.936C691.324 487.771 691.4 486.527 691.161 485.325C691.084 484.826 690.873 484.358 690.551 483.97C689.623 482.981 687.949 483.408 686.837 484.187C683.314 486.666 682.331 491.447 682.311 495.754C681.959 494.203 682.257 492.585 682.243 491.014C682.23 489.442 681.796 487.627 680.454 486.801C679.622 486.354 678.688 486.133 677.744 486.158C676.158 486.097 674.396 486.259 673.312 487.417C671.957 488.853 672.316 491.271 673.488 492.835C674.661 494.4 676.436 495.409 678.076 496.506C679.39 497.287 680.511 498.354 681.356 499.628C681.455 499.805 681.537 499.991 681.599 500.183H691.527C693.751 499.051 695.811 497.622 697.652 495.937Z" fill="#FFC979"/>
<path d="M466.671 492.266C466.671 492.266 465.994 502.872 467.349 504.633C467.349 504.633 436.233 510.288 432.343 508.52C428.454 506.753 430.222 503.929 432.343 502.865C434.464 501.802 445.076 497.915 446.485 490.499C446.485 490.499 441.891 488.379 456.737 491.176C471.584 493.973 466.671 492.266 466.671 492.266Z" fill="#DC9BA3"/>
<path opacity="0.05" d="M466.671 492.266C466.671 492.266 465.994 502.872 467.349 504.633C467.349 504.633 436.233 510.288 432.343 508.52C428.454 506.753 430.222 503.929 432.343 502.865C434.464 501.802 445.076 497.915 446.485 490.499C446.485 490.499 441.891 488.379 456.737 491.176C471.584 493.973 466.671 492.266 466.671 492.266Z" fill="black"/>
<path d="M587.959 389.421C587.959 389.421 584.069 395.78 586.543 408.153C589.016 420.526 580.18 420.52 580.18 420.52H562.507L556.497 404.943L564.981 405.62C564.981 405.62 570.639 404.205 568.166 391.127L587.959 389.421Z" fill="#FFD2D9"/>
<path d="M534.921 374.582C537.632 383.19 541.02 393.674 542.829 399.261L544.117 403.209L555.786 391.195C555.786 391.195 555.271 390.003 554.505 388.337C552.797 384.639 549.822 378.605 548.359 378.117C548.359 378.117 564.622 377.054 569.575 380.942C574.529 384.829 573.112 370.336 573.112 370.336C573.112 370.336 563.565 369.659 560.027 367.512C556.49 365.365 537.395 363.272 537.395 363.272C537.395 363.272 531.032 362.209 534.921 374.582Z" fill="#FFD2D9"/>
<path d="M428.833 478.505L431.306 496.526L437.669 495.849C437.669 495.849 438.055 495.483 438.706 494.901C440.42 493.391 443.991 490.431 447.407 488.806C448.562 488.216 449.816 487.842 451.106 487.702L444.032 477.096C442.311 477.741 440.548 478.264 438.753 478.661C436.89 479.099 434.983 479.326 433.068 479.338C431.614 479.36 430.171 479.076 428.833 478.505Z" fill="#FFD2D9"/>
<path d="M446.512 491.21C449.697 494.034 464.191 488.027 466.671 497.217L468.948 488.501L475.962 461.682L476.924 457.991L482.765 457.741L549.802 454.883L553.597 454.72L555.63 454.632L552.973 453.318L535.294 444.562C535.294 444.562 528.925 444.115 520.143 442.909C506.827 441.087 487.962 437.491 477.31 431.132C459.631 420.526 452.916 456.224 452.916 456.224C452.916 456.224 450.205 465.278 448.172 474.204C447.239 478.055 446.526 481.955 446.038 485.887C445.733 488.616 445.828 490.594 446.512 491.21Z" fill="#E9E9EF"/>
<path opacity="0.05" d="M446.512 491.21C449.697 494.034 464.191 488.027 466.671 497.217L468.948 488.501L475.962 461.682L476.924 457.991L482.948 457.619L547.715 453.637L551.713 453.386L552.946 453.312L554.539 453.21L535.267 444.548C535.267 444.548 528.897 444.101 520.115 442.896C506.8 441.074 487.935 437.478 477.283 431.118C459.604 420.513 452.889 456.21 452.889 456.21C452.889 456.21 450.178 465.265 448.145 474.191C447.212 478.041 446.499 481.942 446.011 485.873C445.733 488.616 445.828 490.594 446.512 491.21Z" fill="black"/>
<path opacity="0.1" d="M438.76 478.634L444.947 485.887L447.413 488.779C448.569 488.189 449.823 487.814 451.113 487.675L444.039 477.069C442.318 477.714 440.554 478.237 438.76 478.634Z" fill="black"/>
<path d="M439.092 477.78L446.011 485.907L449.345 489.815V490.878C453.41 491.819 466.143 489.138 468.948 488.521L469.497 488.399C477.629 488.752 507.688 471.082 507.688 471.082C507.688 471.082 540.573 476.737 556.477 475.322C565.36 474.529 567.854 471.319 568.321 468.631C568.527 467.302 568.343 465.943 567.793 464.716L553.563 454.727L551.679 453.372L548.67 451.253C548.67 451.253 543.439 450.067 536.798 448.605C526.417 446.316 512.587 443.343 509.788 443.133C505.194 442.78 493.526 446.668 486.804 454.442C485.65 455.656 484.348 456.718 482.928 457.605L482.745 457.727C480.854 458.98 478.53 460.307 475.968 461.669C467.41 466.172 455.999 471.015 448.152 474.191C442.785 476.378 439.092 477.78 439.092 477.78Z" fill="#E9E9EF"/>
<path opacity="0.1" d="M428.833 478.505L431.306 496.526L437.669 495.849C437.669 495.849 438.055 495.483 438.706 494.901C437.296 494.901 434.972 494.528 434.484 491.609C434.484 491.609 436.937 483.042 433.068 479.351C431.613 479.369 430.17 479.081 428.833 478.505Z" fill="black"/>
<path d="M433.759 491.562C433.759 491.562 437.296 479.196 429.165 477.78L415.728 483.083L400.142 484.146C400.142 484.146 396.077 490.777 402.589 498.213C404.379 500.229 406.559 501.862 408.998 503.014C411.436 504.166 414.083 504.814 416.778 504.917L433.759 505.696L439.092 494.759C439.092 494.759 434.491 495.802 433.759 491.562Z" fill="#DC9BA3"/>
<path opacity="0.1" d="M520.122 442.909C521.904 443.431 529.277 445.618 536.826 448.618C540.557 450.056 544.192 451.732 547.708 453.637C548.44 454.05 549.138 454.463 549.795 454.876C551.517 455.887 553.058 457.178 554.356 458.696C558.72 464.337 565.13 467.378 568.322 468.617C568.527 467.289 568.343 465.929 567.793 464.703L553.563 454.713L555.596 454.625L552.939 453.311L554.532 453.21L535.26 444.548C535.26 444.548 528.904 444.115 520.122 442.909Z" fill="black"/>
<path opacity="0.1" d="M542.856 399.268L544.144 403.216L555.813 391.202C555.813 391.202 555.298 390.01 554.532 388.344C553.021 391.452 545.98 396.911 542.856 399.268Z" fill="black"/>
<path d="M584.93 405.126C585.348 403.929 585.654 402.695 585.845 401.442L601.044 406.717C601.044 406.717 611.472 414.668 610.415 431.985C610.415 431.985 597.54 427.244 591.848 432.866L591.733 433.861C590.537 443.743 586.161 452.969 579.265 460.152C576.453 463.104 573.803 466.43 572.401 469.633C572.401 469.633 562.501 466.809 556.49 459.027C550.48 451.246 521.85 443.146 521.85 443.146C521.85 443.146 537.056 443.498 539.177 438.195C541.298 432.893 548.372 421.583 545.899 412.752C543.426 403.92 542.009 401.089 542.009 401.089C542.009 401.089 556.51 390.843 555.447 387.66L564.642 398.265L568.884 399.681C568.549 400.502 568.378 401.381 568.382 402.268C568.138 411.864 581.704 414.167 584.93 405.126Z" fill="#CEDAD5"/>
<path opacity="0.1" d="M568.694 395.834C568.587 394.514 568.408 393.2 568.159 391.899L587.959 390.132C587.959 390.132 586.604 391.317 585.994 395.733C583.67 397.087 580.959 398.97 578.059 398.97C574.679 398.974 571.39 397.872 568.694 395.834Z" fill="black"/>
<path d="M577.883 398.435C586.475 398.435 593.441 391.473 593.441 382.885C593.441 374.297 586.475 367.336 577.883 367.336C569.29 367.336 562.325 374.297 562.325 382.885C562.325 391.473 569.29 398.435 577.883 398.435Z" fill="#FFD2D9"/>
<path d="M589.375 386.949H587.254V380.941L585.133 374.582C585.133 374.582 574.522 369.632 569.548 370.695L565.685 374.21C565.685 374.21 564.622 365.731 570.991 362.548C577.361 359.365 588.67 360.78 591.503 363.225C594.335 365.67 598.957 369.943 595.392 381.605L594.356 384.477C594.356 384.477 590.08 383.061 589.375 386.949Z" fill="#844F6E"/>
<g opacity="0.05">
<path d="M561.891 395.109L560.732 394.723L555.392 388.567C555.497 388.275 555.509 387.958 555.426 387.66L561.891 395.109Z" fill="black"/>
<path d="M569.331 406.514C567.82 405.871 566.543 404.778 565.674 403.385C564.805 401.992 564.386 400.365 564.473 398.726C564.473 398.516 564.473 398.32 564.473 398.13L564.581 398.259L568.823 399.674C568.488 400.495 568.317 401.374 568.321 402.261C568.279 403.743 568.627 405.21 569.331 406.514Z" fill="black"/>
<path d="M528.084 442.855C536.948 445.936 548.948 450.792 552.601 455.513L552.872 455.851C543.161 449.194 521.837 443.139 521.837 443.139C523.923 443.163 526.009 443.068 528.084 442.855Z" fill="black"/>
<path d="M568.511 466.118C569.914 462.928 572.577 459.596 575.375 456.637C582.271 449.455 586.647 440.228 587.844 430.346L587.959 429.351C593.617 423.696 606.526 428.47 606.526 428.47C607.203 417.485 603.246 410.273 600.271 406.467L601.051 406.738C601.051 406.738 611.479 414.688 610.422 432.006C610.422 432.006 597.547 427.265 591.855 432.886L591.74 433.881C590.543 443.763 586.168 452.99 579.272 460.172C576.46 463.125 573.81 466.45 572.408 469.653C572.408 469.653 563.788 467.188 557.757 460.551C561.008 462.991 564.642 464.872 568.511 466.118Z" fill="black"/>
</g>
<path d="M572.401 424.766C572.401 424.766 589.341 449.146 598.211 456.217C607.081 463.287 609.528 453.034 609.528 453.034V430.421L593.942 428.653L593.773 430.8L593.583 433.252L579.082 417.675C579.082 417.675 564.581 404.597 561.755 412.372C558.93 420.147 572.401 424.766 572.401 424.766Z" fill="#FFD2D9"/>
<path opacity="0.1" d="M593.807 430.8C595.928 432.035 598.177 433.034 600.515 433.78C603.856 434.809 607.684 433.726 609.534 433.062V430.421L593.949 428.653L593.807 430.8Z" fill="black"/>
<path d="M609.711 428.125L610.619 431.911C610.619 431.911 605.089 434.484 600.495 433.075C597.397 432.026 594.439 430.602 591.686 428.836C591.008 428.484 594.512 424.596 594.512 424.596L609.711 428.125Z" fill="#CEDAD5"/>
<path opacity="0.1" d="M507.864 471.238C505.506 469.429 502.882 467.996 500.085 466.992C497.417 466.081 494.904 464.771 492.631 463.104" fill="black"/>
<path opacity="0.2" d="M400.19 484.14L400.766 484.099C399.926 486.232 398.733 491.447 403.693 497.143C405.479 499.152 407.652 500.78 410.082 501.931C412.511 503.082 415.149 503.731 417.835 503.84L434.301 504.613L433.773 505.696L416.778 504.917C414.091 504.808 411.454 504.159 409.025 503.008C406.595 501.857 404.422 500.228 402.636 498.219C396.124 490.77 400.19 484.14 400.19 484.14Z" fill="white"/>
<path opacity="0.05" d="M460.234 499.289C460.184 499.502 460.128 499.712 460.065 499.919C459.719 499.723 459.224 499.344 460.234 499.289Z" fill="#00FF00"/>
<path opacity="0.2" d="M432.404 507.464C436.029 509.109 463.283 504.315 466.963 503.651C467.037 504.003 467.18 504.336 467.383 504.633C467.383 504.633 436.267 510.288 432.377 508.52C430.344 507.613 429.877 506.421 430.148 505.337C430.371 506.096 431.008 506.847 432.404 507.464Z" fill="white"/>
<path opacity="0.1" d="M567.996 375.456C564.171 373.144 561.065 369.814 559.024 365.839C558.738 365.401 558.62 364.874 558.692 364.356C558.943 363.394 560.197 363.225 561.105 362.812C562.792 362.04 563.504 360.103 564.608 358.599C565.556 357.362 566.828 356.411 568.284 355.853C569.74 355.295 571.322 355.151 572.855 355.437C574.467 355.762 575.958 356.561 577.598 356.791C581.108 357.306 584.93 355.179 588.081 356.791C589.517 357.529 590.493 358.918 591.347 360.286C593.495 363.719 596.185 367.37 594.234 371.379C593.116 373.682 591.327 375.591 588.813 376.262C586.299 376.932 583.392 376.37 580.83 376.099C578.73 375.869 576.521 375.422 574.406 375.612C571.913 375.869 570.361 376.878 567.996 375.456Z" fill="black"/>
<path d="M567.996 374.745C564.171 372.433 561.065 369.103 559.024 365.128C558.738 364.69 558.62 364.163 558.692 363.645C558.943 362.683 560.197 362.514 561.105 362.101C562.792 361.329 563.504 359.392 564.608 357.888C565.556 356.651 566.828 355.7 568.284 355.142C569.74 354.584 571.322 354.439 572.855 354.725C574.467 355.051 575.958 355.85 577.598 356.08C581.108 356.595 584.93 354.468 588.081 356.08C589.517 356.818 590.493 358.207 591.347 359.575C593.495 363.008 596.185 366.658 594.234 370.668C593.116 372.97 591.327 374.88 588.813 375.551C586.299 376.221 583.392 375.659 580.83 375.388C578.73 375.158 576.521 374.711 574.406 374.901C571.913 375.158 570.361 376.174 567.996 374.745Z" fill="#844F6E"/>
<path d="M276.51 458.939C276.51 466.226 276.917 471.042 276.917 471.042C276.917 471.042 287.332 471.624 287.041 481.275C286.749 490.925 327.522 492.971 327.522 492.971C327.522 492.971 327.522 492.869 327.522 492.68C327.522 492.68 327.522 491.901 327.522 490.492C331.398 491.068 335.545 491.535 337.869 491.311C337.713 492.063 337.53 492.856 337.354 493.56C337.164 493.75 333.41 497.542 333.532 501.578C333.465 503.61 334.386 505.696 337.368 507.43C345.973 512.455 372.773 509.658 372.773 509.658C376.839 506.99 378.194 504.721 378.12 502.838C378.249 500.061 375.477 498.097 372.936 496.831C370.972 495.852 368.72 495.612 366.593 496.154C363.724 496.789 360.777 497.006 357.845 496.797C357.959 496.214 358.11 495.64 358.299 495.077C361.05 495.856 362.948 496.431 362.948 496.431C362.948 496.431 377.232 488.833 371.283 476.554C370.344 474.851 368.932 473.456 367.217 472.538C371.804 464.635 376.161 455.33 375.728 449.072C375.003 438.629 354.254 440.904 346.482 442.13L331.499 427.441C331.499 416.605 331.831 404.164 330.822 401.469C329.033 396.789 329.629 397.405 328.443 395.333L328.396 395.258C327.718 394.161 325.875 392.421 325.401 392.658C325.199 390.505 325.228 388.337 325.489 386.19C329.176 384.985 332.39 382.65 334.675 379.516C336.959 376.382 338.197 372.608 338.215 368.731C338.217 365.829 337.519 362.969 336.182 360.394L336.385 360.306L334.42 350.648C334.35 350.444 334.321 350.228 334.336 350.013C334.351 349.798 334.41 349.588 334.508 349.396C334.711 349.125 335.057 349.043 335.321 348.854C335.62 348.564 335.814 348.183 335.872 347.771C335.929 347.358 335.848 346.939 335.64 346.578C335.457 346.22 335.206 345.9 334.901 345.637C333.248 343.761 329.731 344.431 327.569 344.154C324.642 343.781 321.572 343.239 318.801 344.689C318.204 345.058 317.581 345.384 316.937 345.664C316.055 345.903 315.138 345.99 314.227 345.921C312.577 345.92 310.93 346.067 309.307 346.362C307.193 345.596 304.706 346.273 302.748 347.445C300.508 348.816 298.683 350.771 297.47 353.1C296.257 355.429 295.702 358.044 295.863 360.665C296.034 362.303 296.349 363.924 296.805 365.507L300.43 379.628C300.662 380.807 301.122 381.93 301.786 382.933C301.946 383.145 302.128 383.34 302.328 383.515C302.673 383.931 303.121 384.251 303.627 384.443C304.133 384.635 304.679 384.694 305.214 384.612C305.352 384.579 305.487 384.532 305.614 384.47C305.491 385.956 305.203 387.423 304.754 388.845C300.607 390.05 294.589 394.263 287.366 406.453C278.096 422.07 276.551 445.097 276.51 458.939Z" fill="url(#paint0_linear_5_716)"/>
<path d="M312.553 479.25H353.102V450.223H312.553V479.25Z" fill="#5F5D7E"/>
<path d="M343.039 443.898C343.039 443.898 373.234 437.572 374.095 450.223C374.955 462.874 356.266 488.149 356.266 488.149L339.326 484.702L344.212 465.156C344.212 465.156 324.947 460.842 323.795 460.558C322.643 460.274 343.039 443.898 343.039 443.898Z" fill="#5F5D7E"/>
<path opacity="0.1" d="M343.039 443.898C343.039 443.898 373.234 437.572 374.095 450.223C374.955 462.874 356.266 488.149 356.266 488.149L339.326 484.702L344.212 465.156C344.212 465.156 324.947 460.842 323.795 460.558C322.643 460.274 343.039 443.898 343.039 443.898Z" fill="black"/>
<path d="M358.862 491.609C358.862 491.609 355.989 497.068 356.829 499.371C357.669 501.673 336.412 496.208 336.412 496.208C336.412 496.208 338.14 489.598 337.849 488.758C337.557 487.919 358.862 491.609 358.862 491.609Z" fill="#5F5D7E"/>
<path d="M340.166 454.246L342.28 456.156L343.636 457.389C343.636 457.389 350.541 468.597 359.451 461.703C368.362 454.808 352.533 449.648 349.368 449.384C348.734 449.291 348.131 449.046 347.612 448.67C347.093 448.293 346.672 447.797 346.387 447.223C345.902 446.379 345.55 445.465 345.343 444.514L340.166 454.246Z" fill="#FDC2CC"/>
<path opacity="0.05" d="M340.166 454.246L342.28 456.156L343.636 457.389C343.636 457.389 350.541 468.597 359.451 461.703C368.362 454.808 352.533 449.648 349.368 449.384C348.734 449.291 348.131 449.046 347.612 448.67C347.093 448.293 346.672 447.797 346.387 447.223C345.902 446.379 345.55 445.465 345.343 444.514L340.166 454.246Z" fill="black"/>
<path opacity="0.1" d="M358.862 491.609C358.862 491.609 355.989 497.068 356.829 499.371C357.669 501.673 336.412 496.208 336.412 496.208C336.412 496.208 338.14 489.598 337.849 488.758C337.557 487.919 358.862 491.609 358.862 491.609Z" fill="black"/>
<path opacity="0.1" d="M340.166 454.246L342.28 456.156C342.28 452.472 344.727 449.086 346.4 447.182C345.915 446.338 345.563 445.425 345.357 444.474L340.166 454.246Z" fill="black"/>
<path d="M327.515 425.219L347.356 445.049C347.356 445.049 340.451 451.083 341.894 457.409L327.515 441.311V425.219Z" fill="#C4C8E2"/>
<path opacity="0.1" d="M327.657 425.219V441.318L329.961 443.898L336.798 451.551L342.036 457.416C340.6 451.09 347.498 445.056 347.498 445.056L327.657 425.219Z" fill="black"/>
<path d="M327.515 396.762C327.515 396.762 327.515 402.796 322.338 401.076C317.161 399.356 321.186 469.193 321.186 469.193C321.186 469.193 336.141 457.984 333.261 449.939C330.381 441.893 329.812 435.839 330.083 427.807C330.354 419.775 327.515 396.762 327.515 396.762Z" fill="#D39999"/>
<path d="M327.224 380.671C327.224 380.671 322.907 392.455 327.224 401.367C331.54 410.28 301.623 396.477 301.623 396.477C301.623 396.477 308.237 393.315 305.939 378.083L327.224 380.671Z" fill="#FDC2CC"/>
<path opacity="0.1" d="M329.812 434.416C329.635 437.574 329.635 440.74 329.812 443.898L336.649 451.551C335.648 449.413 334.517 447.339 333.261 445.34C332.197 443.695 331.96 437.132 331.906 429.642L329.399 427.136C329.663 431.179 329.812 434.416 329.812 434.416Z" fill="black"/>
<path d="M325.34 395.204C325.021 393.694 327.515 395.969 328.315 397.29L328.355 397.365C329.507 399.396 328.931 398.8 330.659 403.399C332.387 407.997 330.083 441.324 332.692 445.388C334.454 448.235 335.992 451.215 337.293 454.3L332.692 452.573C332.692 452.573 330.964 447.399 329.819 446.248C328.674 445.097 329.243 434.464 329.243 434.464C329.243 434.464 328.382 416.07 327.515 412.047C326.831 408.81 326.017 398.38 325.34 395.204Z" fill="#C4C8E2"/>
<path opacity="0.1" d="M325.34 395.204C325.021 393.694 327.515 395.969 328.315 397.29L328.355 397.365C329.507 399.396 328.931 398.8 330.659 403.399C332.387 407.997 330.083 441.324 332.692 445.388C334.454 448.235 335.992 451.215 337.293 454.3L332.692 452.573C332.692 452.573 330.964 447.399 329.819 446.248C328.674 445.097 329.243 434.464 329.243 434.464C329.243 434.464 328.382 416.07 327.515 412.047C326.831 408.81 326.017 398.38 325.34 395.204Z" fill="black"/>
<path d="M318.597 466.89C318.597 466.89 364.032 465.163 369.785 477.238C375.538 489.314 361.735 496.79 361.735 496.79C361.735 496.79 342.47 490.756 338.154 491.616C333.837 492.476 318.597 489.314 318.597 489.314V466.89Z" fill="#5F5D7E"/>
<path d="M343.907 459.42C343.907 459.42 354.261 453.67 360.014 457.388C365.767 461.107 365.191 471.184 357.141 471.468C349.09 471.753 344.774 466.87 344.774 466.87L343.907 459.42Z" fill="#FDC2CC"/>
<path d="M311.408 391.303C311.408 391.303 302.206 384.978 288.687 408.234C275.169 431.491 278.625 471.462 278.625 471.462C278.625 471.462 288.687 472.037 288.403 481.519C288.118 491 327.515 493.032 327.515 493.032C327.515 493.032 326.939 398.76 322.914 396.186C318.889 393.613 311.408 391.303 311.408 391.303Z" fill="#C4C8E2"/>
<path opacity="0.1" d="M311.367 408.451C312.99 409.62 314.311 411.159 315.221 412.939C316.13 414.72 316.603 416.692 316.598 418.691C316.646 427.299 316.856 445.848 317.73 449.356C318.882 453.955 336.134 459.989 345.052 459.705C345.052 459.705 349.368 467.75 344.191 469.477C339.014 471.204 307.383 469.477 307.383 469.477C307.383 469.477 295.016 455.397 294.732 443.065C294.447 430.732 292.699 416.91 294.732 414.323C296.392 412.135 303.337 402.789 311.367 408.451Z" fill="black"/>
<path d="M311.943 407.3C313.574 408.466 314.903 410.006 315.819 411.789C316.734 413.572 317.211 415.549 317.208 417.553C317.256 426.161 317.466 444.711 318.34 448.219C319.492 452.817 336.744 458.851 345.662 458.567C345.662 458.567 349.978 466.613 344.801 468.34C339.624 470.066 307.993 468.34 307.993 468.34C307.993 468.34 295.626 454.26 295.341 441.927C295.057 429.595 293.309 415.772 295.341 413.185C296.968 411.011 303.913 401.638 311.943 407.3Z" fill="#C4C8E2"/>
<path d="M371.384 497.136C375.511 499.168 380.295 503.353 371.228 509.712C371.228 509.712 345.35 512.584 337.008 507.41C328.667 502.235 337.008 493.899 337.008 493.899C337.008 493.899 356.097 498.971 365.258 496.492C367.311 495.953 369.489 496.181 371.384 497.136Z" fill="#4C4C56"/>
<path opacity="0.1" d="M371.384 497.718C375.511 499.682 380.295 503.664 371.228 509.753C371.228 509.753 345.35 512.502 337.008 507.552C328.667 502.601 337.008 494.63 337.008 494.63C337.008 494.63 356.097 499.479 365.258 497.115C367.308 496.595 369.475 496.808 371.384 497.718Z" fill="black"/>
<path opacity="0.1" d="M312.702 428.809C312.702 428.809 314.139 446.918 323.632 450.941L312.702 428.809Z" fill="black"/>
<path opacity="0.1" d="M326.939 382.682C326.1 385.174 325.53 387.749 325.238 390.362C323.422 390.971 320.766 389.441 318.74 389.441C313.468 389.441 311.964 383.549 308.677 379.959C308.677 378.361 305.967 382.093 305.655 380.102L326.939 382.682Z" fill="black"/>
<path d="M301.623 371.182C301.621 372.685 301.806 374.182 302.172 375.639L302.233 375.869C303.42 380.336 306.263 384.184 310.184 386.632C314.106 389.081 318.813 389.946 323.35 389.053C327.887 388.159 331.914 385.574 334.614 381.822C337.313 378.07 338.483 373.431 337.886 368.848C337.289 364.265 334.969 360.081 331.398 357.145C327.827 354.209 323.272 352.741 318.657 353.039C314.043 353.337 309.714 355.378 306.551 358.749C303.387 362.12 301.625 366.568 301.623 371.189V371.182Z" fill="#FDC2CC"/>
<path opacity="0.1" d="M288.694 408.546C290.572 405.239 292.723 402.095 295.125 399.146C293.193 401.683 291.43 404.343 289.846 407.11C276.327 430.394 279.783 470.337 279.783 470.337C279.783 470.337 289.846 470.913 289.561 480.394C289.304 488.907 321.01 491.4 327.508 491.819C327.508 492.795 327.508 493.323 327.508 493.323C327.508 493.323 288.111 491.291 288.396 481.81C288.68 472.328 278.618 471.753 278.618 471.753C278.618 471.753 275.196 431.829 288.694 408.546Z" fill="black"/>
<path opacity="0.1" d="M303.92 350.506C305.818 349.362 308.216 348.691 310.263 349.443C311.827 349.154 313.415 349.009 315.006 349.01C315.877 349.075 316.752 348.99 317.595 348.759C318.218 348.485 318.82 348.166 319.397 347.804C322.074 346.382 325.042 346.917 327.867 347.283C330.164 347.581 334.047 346.748 335.375 349.375C335.576 349.73 335.655 350.14 335.6 350.544C335.545 350.948 335.359 351.322 335.07 351.61C334.813 351.8 334.481 351.874 334.284 352.145C334.189 352.335 334.132 352.541 334.117 352.753C334.102 352.964 334.129 353.177 334.196 353.378L336.094 362.859C335.22 363.284 334.269 363.526 333.298 363.571C332.327 363.615 331.358 363.46 330.449 363.117C329.941 362.917 329.443 362.691 328.958 362.439C327.542 363.36 326.078 362.663 324.364 363.029C323.35 363.32 322.448 363.91 321.775 364.722C319.782 366.846 318.448 369.501 317.933 372.368C317.744 373.445 317.493 374.772 316.449 375.077C316.054 375.153 315.653 375.193 315.25 375.199C313.366 375.442 312.594 377.671 311.381 379.14C309.904 380.928 307.254 382.093 307.091 384.409C307.051 385.005 307.18 385.662 306.847 386.163C306.623 386.463 306.294 386.666 305.926 386.732C305.346 386.814 304.754 386.73 304.219 386.49C303.685 386.251 303.229 385.865 302.904 385.377C302.272 384.388 301.838 383.287 301.623 382.134L298.12 368.25C297.679 366.699 297.373 365.113 297.205 363.509C297.048 360.938 297.589 358.373 298.771 356.084C299.953 353.795 301.732 351.868 303.92 350.506Z" fill="black"/>
<path d="M303.656 350.249C305.553 349.104 307.952 348.434 309.998 349.186C311.563 348.896 313.151 348.751 314.742 348.752C315.613 348.817 316.488 348.733 317.33 348.502C317.954 348.228 318.556 347.909 319.133 347.547C321.809 346.124 324.777 346.66 327.603 347.025C329.9 347.323 333.783 346.49 335.111 349.118C335.312 349.472 335.391 349.883 335.336 350.287C335.281 350.69 335.095 351.065 334.806 351.353C334.549 351.542 334.217 351.617 334.02 351.888C333.925 352.077 333.868 352.284 333.853 352.495C333.838 352.707 333.865 352.919 333.932 353.12L335.829 362.602C334.956 363.027 334.004 363.269 333.034 363.313C332.063 363.358 331.094 363.203 330.185 362.859C329.677 362.659 329.179 362.433 328.694 362.182C327.278 363.103 325.814 362.405 324.1 362.771C323.086 363.062 322.184 363.652 321.511 364.464C319.518 366.588 318.183 369.244 317.669 372.11C317.479 373.187 317.229 374.514 316.185 374.819C315.79 374.895 315.388 374.936 314.986 374.941C313.102 375.185 312.329 377.413 311.117 378.883C309.639 380.671 306.99 381.835 306.827 384.152C306.787 384.748 306.915 385.405 306.583 385.906C306.359 386.205 306.03 386.408 305.662 386.475C305.081 386.556 304.49 386.472 303.955 386.233C303.421 385.993 302.964 385.607 302.639 385.12C302.008 384.131 301.573 383.03 301.359 381.876L297.855 367.993C297.414 366.442 297.108 364.856 296.941 363.252C296.783 360.681 297.325 358.115 298.507 355.826C299.689 353.537 301.468 351.61 303.656 350.249Z" fill="#865A61"/>
</g>
<defs>
<linearGradient id="paint0_linear_5_716" x1="378.113" y1="427.089" x2="276.51" y2="427.089" gradientUnits="userSpaceOnUse">
<stop stop-color="#808080" stop-opacity="0.25"/>
<stop offset="0.54" stop-color="#808080" stop-opacity="0.12"/>
<stop offset="1" stop-color="#808080" stop-opacity="0.1"/>
</linearGradient>
<clipPath id="clip0_5_716">
<rect width="774" height="529" fill="white"/>
</clipPath>
</defs>
</svg>
